<svg xmlns="http://www.w3.org/2000/svg" width="200" height="60" fill="none" viewBox="0 0 200 60"><g clip-path="url(#a)"><path fill="#fff" d="M192.593 0H7.407C3.317 0 0 3.358 0 7.5v45C0 56.642 3.316 60 7.407 60h185.186c4.091 0 7.407-3.358 7.407-7.5v-45c0-4.142-3.316-7.5-7.407-7.5Z"/><path stroke="#000" stroke-opacity=".12" d="M7.407.5h185.186c3.809 0 6.907 3.128 6.907 7v45c0 3.872-3.098 7-6.907 7H7.407C3.598 59.5.5 56.372.5 52.5v-45c0-3.872 3.098-7 6.907-7Z"/><path fill="#fff" d="M10 10h40v40H10z"/><path fill="#000" d="M41.18 31.272a9.092 9.092 0 0 1 4.33-7.627 9.304 9.304 0 0 0-7.332-3.963c-3.084-.324-6.075 1.846-7.647 1.846-1.602 0-4.022-1.814-6.628-1.76a9.764 9.764 0 0 0-8.216 5.01c-3.553 6.15-.903 15.19 2.5 20.162 1.703 2.435 3.693 5.154 6.296 5.058 2.548-.106 3.5-1.625 6.575-1.625 3.047 0 3.94 1.625 6.596 1.563 2.734-.044 4.457-2.445 6.1-4.903a20.135 20.135 0 0 0 2.79-5.68 8.785 8.785 0 0 1-5.363-8.081Zm-5.017-14.86A8.95 8.95 0 0 0 38.21 10a9.106 9.106 0 0 0-5.892 3.049 8.516 8.516 0 0 0-2.1 6.174 7.53 7.53 0 0 0 5.945-2.81Z"/><path fill="#fff" d="M60 10h130v40H60V10Z"/><path fill="#000" d="M160.401 23.133c-.673 0-1.251-.144-1.733-.431a2.912 2.912 0 0 1-1.117-1.238c-.258-.533-.387-1.164-.387-1.892v-.006c0-.72.129-1.348.387-1.885.262-.538.63-.957 1.104-1.257.478-.3 1.037-.45 1.676-.45.643 0 1.196.143 1.657.43a2.83 2.83 0 0 1 1.073 1.213c.249.517.374 1.122.374 1.816v.482h-5.573v-.984h4.888l-.661.914v-.552c0-.49-.076-.897-.228-1.219a1.605 1.605 0 0 0-.616-.73 1.701 1.701 0 0 0-.908-.241c-.342 0-.649.085-.92.254-.267.165-.478.41-.635.736-.152.326-.228.726-.228 1.2v.552c0 .453.076.84.228 1.162.153.321.368.567.648.736.283.17.618.254 1.003.254.296 0 .55-.04.761-.12.216-.085.392-.189.527-.312.14-.122.235-.243.286-.361l.025-.051h1.333l-.012.057a2.369 2.369 0 0 1-.902 1.301 2.938 2.938 0 0 1-.876.45c-.338.115-.73.172-1.174.172ZM149.711 23v-9.598h1.378v3.746h.108a1.96 1.96 0 0 1 .749-.864c.33-.207.747-.31 1.25-.31.512 0 .946.099 1.302.297.355.2.626.491.812.877.186.38.279.844.279 1.39V23h-1.383v-4.139c0-.575-.121-1.003-.362-1.282-.237-.283-.61-.425-1.117-.425a1.65 1.65 0 0 0-.87.222 1.45 1.45 0 0 0-.571.622c-.132.267-.197.586-.197.958V23h-1.378Zm-2.424.044c-.754 0-1.3-.143-1.638-.431-.334-.292-.502-.768-.502-1.428v-3.993h-1.079v-1.086h1.079v-1.739h1.41v1.74h1.479v1.085h-1.479v3.656c0 .373.074.641.222.806.148.161.393.241.736.241a4.544 4.544 0 0 0 .521-.025v1.105c-.11.016-.229.031-.356.044a2.96 2.96 0 0 1-.393.025ZM133.347 23v-6.894h1.378v1.041h.108c.169-.368.418-.655.749-.863.33-.207.746-.31 1.25-.31.774 0 1.367.221 1.777.666.411.444.616 1.077.616 1.898V23h-1.384v-4.139c0-.575-.12-1.003-.362-1.282-.236-.283-.609-.425-1.117-.425a1.65 1.65 0 0 0-.869.222 1.457 1.457 0 0 0-.572.622c-.131.267-.196.586-.196.958V23h-1.378Zm-4.9.133c-.673 0-1.255-.144-1.746-.431a2.86 2.86 0 0 1-1.123-1.232c-.263-.537-.394-1.174-.394-1.91v-.013c0-.74.131-1.378.394-1.91a2.893 2.893 0 0 1 1.13-1.232c.49-.288 1.07-.432 1.739-.432.673 0 1.252.144 1.739.432.487.283.861.694 1.124 1.231.266.533.399 1.17.399 1.91v.014c0 .736-.133 1.373-.399 1.91a2.862 2.862 0 0 1-1.124 1.232c-.482.287-1.062.431-1.739.431Zm0-1.155c.393 0 .728-.095 1.003-.286a1.81 1.81 0 0 0 .628-.831c.144-.36.216-.794.216-1.301v-.013c0-.512-.072-.948-.216-1.308-.144-.36-.353-.634-.628-.825-.275-.195-.61-.292-1.003-.292-.394 0-.728.097-1.003.292-.275.19-.487.466-.635.825-.144.36-.216.796-.216 1.308v.013c0 .507.072.941.216 1.3.148.36.36.638.635.832.275.19.609.286 1.003.286Zm-12.112 1.136c-.575 0-1.079-.144-1.51-.431-.428-.292-.76-.705-.997-1.238-.233-.533-.349-1.162-.349-1.885v-.013c0-.728.116-1.358.349-1.892.233-.533.563-.943.99-1.231.428-.292.933-.438 1.517-.438.318 0 .614.05.889.152.275.097.519.237.73.42.212.177.379.39.502.64h.101v-3.796h1.384V23h-1.384v-1.085h-.101c-.136.25-.307.465-.515.647a2.264 2.264 0 0 1-.717.413c-.271.093-.567.14-.889.14Zm.394-1.18c.381 0 .711-.096.99-.286.28-.19.493-.463.641-.819.148-.36.223-.783.223-1.27v-.012c0-.491-.077-.914-.229-1.27a1.796 1.796 0 0 0-.641-.819 1.659 1.659 0 0 0-.984-.291 1.69 1.69 0 0 0-.99.291 1.81 1.81 0 0 0-.635.82c-.144.35-.216.774-.216 1.269v.013c0 .49.072.914.216 1.27.148.355.36.628.635.818.279.19.609.286.99.286Zm-8.366 1.18c-.436 0-.828-.082-1.175-.247a2 2 0 0 1-.812-.718 1.96 1.96 0 0 1-.298-1.085v-.013c0-.414.099-.768.298-1.06.203-.292.495-.52.876-.685.385-.17.851-.271 1.396-.305l2.546-.152v.97l-2.355.153c-.474.03-.823.131-1.047.305-.225.17-.337.408-.337.717v.013c0 .313.121.56.362.742.241.178.546.267.914.267.343 0 .647-.068.914-.203a1.64 1.64 0 0 0 .635-.559 1.45 1.45 0 0 0 .228-.8v-2.17c0-.381-.118-.671-.355-.87-.233-.203-.58-.305-1.041-.305-.385 0-.701.068-.946.203a.996.996 0 0 0-.482.572l-.013.019h-1.327l.007-.045c.055-.38.205-.71.45-.99.25-.283.576-.503.978-.66a3.84 3.84 0 0 1 1.39-.235c.58 0 1.071.093 1.473.28.406.181.713.446.92.793.212.343.317.755.317 1.238V23h-1.371v-.977h-.101a2.174 2.174 0 0 1-.508.596 2.22 2.22 0 0 1-.692.368c-.258.085-.54.127-.844.127Zm-6.792.019c-.673 0-1.255-.144-1.746-.431a2.859 2.859 0 0 1-1.123-1.232c-.263-.537-.394-1.174-.394-1.91v-.013c0-.74.131-1.378.394-1.91a2.898 2.898 0 0 1 1.13-1.232c.49-.288 1.07-.432 1.739-.432.673 0 1.252.144 1.739.432.487.283.861.694 1.124 1.231.266.533.399 1.17.399 1.91v.014c0 .736-.133 1.373-.399 1.91a2.862 2.862 0 0 1-1.124 1.232c-.482.287-1.062.431-1.739.431Zm0-1.155c.393 0 .728-.095 1.003-.286a1.81 1.81 0 0 0 .628-.831c.144-.36.216-.794.216-1.301v-.013c0-.512-.072-.948-.216-1.308-.144-.36-.353-.634-.628-.825-.275-.195-.61-.292-1.003-.292-.394 0-.728.097-1.003.292-.275.19-.487.466-.635.825-.144.36-.216.796-.216 1.308v.013c0 .507.072.941.216 1.3.148.36.36.638.635.832.275.19.609.286 1.003.286ZM95.223 23v-9.598h1.378V23h-1.378Zm-7.858 0v-6.894h1.377v1.041h.108c.17-.368.419-.655.75-.863.33-.207.746-.31 1.25-.31.774 0 1.367.221 1.777.666.41.444.616 1.077.616 1.898V23h-1.384v-4.139c0-.575-.12-1.003-.362-1.282-.237-.283-.61-.425-1.117-.425a1.65 1.65 0 0 0-.87.222 1.455 1.455 0 0 0-.571.622c-.131.267-.197.586-.197.958V23h-1.377Zm-9.103 0-1.898-6.894h1.39l1.232 5.32h.108l1.415-5.32h1.314l1.422 5.32h.102l1.238-5.32h1.364L84.058 23h-1.429l-1.428-5.142h-.108L79.678 23h-1.416Zm-5.954.133c-.673 0-1.255-.144-1.746-.431a2.859 2.859 0 0 1-1.123-1.232c-.262-.537-.394-1.174-.394-1.91v-.013c0-.74.132-1.378.394-1.91a2.898 2.898 0 0 1 1.13-1.232c.49-.288 1.07-.432 1.74-.432.672 0 1.252.144 1.738.432.487.283.862.694 1.124 1.231.266.533.4 1.17.4 1.91v.014c0 .736-.133 1.373-.4 1.91a2.86 2.86 0 0 1-1.124 1.232c-.482.287-1.062.431-1.739.431Zm0-1.155c.394 0 .728-.095 1.003-.286a1.81 1.81 0 0 0 .628-.831c.144-.36.216-.794.216-1.301v-.013c0-.512-.072-.948-.216-1.308a1.764 1.764 0 0 0-.628-.825c-.275-.195-.61-.292-1.003-.292-.393 0-.728.097-1.003.292-.275.19-.487.466-.635.825-.144.36-.215.796-.215 1.308v.013c0 .507.072.941.215 1.3.148.36.36.638.635.832.275.19.61.286 1.003.286ZM60 23v-9.16h3.307c.91 0 1.686.18 2.33.54a3.56 3.56 0 0 1 1.472 1.555c.343.677.515 1.496.515 2.457v.012c0 .97-.172 1.797-.515 2.482a3.585 3.585 0 0 1-1.472 1.574c-.64.36-1.416.54-2.33.54H60Zm1.422-1.231h1.726c.64 0 1.183-.132 1.632-.394a2.505 2.505 0 0 0 1.028-1.143c.237-.499.356-1.102.356-1.809v-.012c0-.703-.121-1.304-.362-1.803-.237-.5-.58-.88-1.029-1.143-.448-.262-.99-.393-1.625-.393h-1.726v6.697Zm90.219 23.456c-1.088 0-2.022-.225-2.803-.674a4.543 4.543 0 0 1-1.807-1.914c-.416-.834-.625-1.82-.625-2.96v-.009c0-1.133.209-2.116.625-2.95.423-.84 1.016-1.487 1.778-1.943.768-.455 1.673-.683 2.714-.683 1.042 0 1.941.221 2.696.664a4.466 4.466 0 0 1 1.748 1.875c.41.8.615 1.741.615 2.822v.879h-8.76v-1.787h7.403l-1.348 1.69v-1.133c0-.632-.098-1.162-.293-1.592-.195-.43-.466-.752-.811-.967a2.223 2.223 0 0 0-1.201-.322c-.455 0-.859.11-1.211.332-.351.221-.628.547-.83.976-.202.43-.302.954-.302 1.573v1.142c0 .6.097 1.11.292 1.533.202.423.489.749.86.977.371.228.81.342 1.318.342.41 0 .759-.062 1.045-.186a2.39 2.39 0 0 0 .713-.44c.182-.175.306-.338.371-.488l.02-.058h2.646l-.019.107a4.113 4.113 0 0 1-.459 1.084 4.006 4.006 0 0 1-.918 1.035c-.384.32-.863.58-1.436.782-.573.195-1.247.293-2.021.293ZM138.818 45V34.316h2.852v1.71h.146c.17-.6.482-1.065.938-1.397.456-.332 1.022-.498 1.699-.498.182 0 .361.013.537.039.176.026.332.058.469.098v2.49a4.184 4.184 0 0 0-.605-.117 4.192 4.192 0 0 0-.645-.05c-.521 0-.973.099-1.357.294a2.099 2.099 0 0 0-.879.84c-.202.358-.303.79-.303 1.298V45h-2.852Zm-7.392.225c-1.087 0-2.028-.222-2.822-.665a4.45 4.45 0 0 1-1.817-1.913c-.423-.834-.635-1.83-.635-2.989v-.02c0-1.145.215-2.131.645-2.958a4.511 4.511 0 0 1 1.826-1.914c.788-.45 1.722-.674 2.803-.674 1.087 0 2.025.224 2.812.674a4.462 4.462 0 0 1 1.817 1.904c.429.827.644 1.816.644 2.969v.02c0 1.158-.211 2.154-.635 2.988a4.448 4.448 0 0 1-1.816 1.913c-.788.443-1.728.665-2.822.665Zm0-2.237c.501 0 .924-.13 1.269-.39.352-.267.622-.648.811-1.143.189-.495.283-1.09.283-1.787v-.02c0-.696-.094-1.292-.283-1.787-.189-.494-.459-.872-.811-1.133-.351-.266-.774-.4-1.269-.4-.488 0-.908.134-1.26.4-.352.26-.622.639-.811 1.133-.188.495-.283 1.09-.283 1.787v.02c0 .697.091 1.296.274 1.797.189.495.459.872.81 1.133.352.26.775.39 1.27.39Zm-8.272 2.09c-1.276 0-2.2-.231-2.773-.693-.567-.462-.85-1.224-.85-2.285v-5.635h-1.601v-2.149h1.601v-2.568h2.881v2.568h2.149v2.149h-2.149v5.058c0 .482.111.83.332 1.045.221.215.567.323 1.035.323a7.379 7.379 0 0 0 .782-.04v2.11c-.17.032-.378.059-.625.078a7.317 7.317 0 0 1-.782.04Zm-12.353.254c-1.127 0-2.103-.166-2.93-.498-.827-.339-1.478-.814-1.953-1.426-.469-.618-.732-1.348-.791-2.187l-.01-.156h2.832l.01.097c.046.352.195.66.449.928.254.267.593.475 1.016.625.423.15.905.224 1.445.224.534 0 .999-.078 1.397-.234.397-.156.706-.371.927-.645.222-.28.332-.598.332-.957v-.01c0-.462-.188-.83-.566-1.103-.371-.28-.993-.51-1.865-.693l-1.494-.303c-1.446-.293-2.507-.778-3.184-1.455-.671-.684-1.006-1.56-1.006-2.627v-.01c.007-.866.238-1.624.694-2.275.462-.651 1.097-1.156 1.904-1.514.807-.358 1.732-.537 2.773-.537 1.094 0 2.035.176 2.823.527.787.352 1.399.837 1.835 1.456.443.612.694 1.318.752 2.119l.01.127h-2.773l-.02-.117a1.692 1.692 0 0 0-.42-.899 2.277 2.277 0 0 0-.908-.596c-.371-.15-.804-.224-1.299-.224-.488 0-.914.071-1.279.215a1.95 1.95 0 0 0-.84.605 1.414 1.414 0 0 0-.303.908v.01c0 .45.186.817.557 1.103.371.287.97.515 1.797.684l1.484.303c.996.202 1.807.475 2.432.82.631.345 1.097.778 1.396 1.299.3.52.45 1.15.45 1.885v.01c0 .924-.228 1.725-.684 2.402-.456.677-1.11 1.201-1.963 1.572-.846.365-1.855.547-3.027.547ZM87.88 48.525V34.316h2.852v1.7h.147c.189-.398.436-.733.742-1.006.313-.28.677-.495 1.094-.645a3.895 3.895 0 0 1 1.377-.234c.898 0 1.67.224 2.314.674.651.442 1.153 1.074 1.504 1.894.352.82.528 1.804.528 2.95v.019c0 1.146-.176 2.132-.528 2.959-.345.82-.84 1.452-1.484 1.895-.645.442-1.42.663-2.324.663a3.95 3.95 0 0 1-1.377-.234 3.444 3.444 0 0 1-1.104-.664 3.165 3.165 0 0 1-.742-1.025h-.147v5.263h-2.851Zm5.245-5.703c.501 0 .931-.127 1.29-.38.357-.261.634-.626.83-1.094.194-.476.292-1.035.292-1.68v-.02c0-.657-.098-1.22-.293-1.689-.195-.469-.472-.83-.83-1.084-.358-.254-.788-.38-1.289-.38-.488 0-.915.126-1.28.38-.364.254-.647.615-.849 1.084-.195.469-.293 1.032-.293 1.69v.019c0 .645.101 1.204.303 1.68.202.468.482.833.84 1.093.364.254.79.381 1.279.381Zm-17.939 5.703V34.316h2.851v1.7h.147a3.11 3.11 0 0 1 .742-1.006c.312-.28.677-.495 1.093-.645a3.895 3.895 0 0 1 1.377-.234c.899 0 1.67.224 2.315.674.651.442 1.152 1.074 1.504 1.894.351.82.527 1.804.527 2.95v.019c0 1.146-.176 2.132-.527 2.959-.345.82-.84 1.452-1.484 1.895-.645.442-1.42.663-2.325.663a3.95 3.95 0 0 1-1.377-.234 3.444 3.444 0 0 1-1.103-.664 3.165 3.165 0 0 1-.742-1.025h-.147v5.263h-2.852Zm5.244-5.703c.501 0 .93-.127 1.289-.38.358-.261.635-.626.83-1.094.195-.476.293-1.035.293-1.68v-.02c0-.657-.098-1.22-.293-1.689-.196-.469-.472-.83-.83-1.084-.358-.254-.788-.38-1.29-.38-.488 0-.914.126-1.279.38-.364.254-.647.615-.85 1.084-.194.469-.292 1.032-.292 1.69v.019c0 .645.1 1.204.303 1.68.201.468.481.833.84 1.093.364.254.79.381 1.279.381ZM60 45l4.902-14.092h2.53v2.793h-.87L63.106 45H60Zm2.627-3.418.723-2.207h6.533l.723 2.207h-7.979ZM70.176 45l-3.467-11.299v-2.793h1.66L73.272 45h-3.096Z"/></g><defs><clipPath id="a"><path fill="#fff" d="M0 0h200v60H0z"/></clipPath></defs></svg>