<svg xmlns="http://www.w3.org/2000/svg" width="200" height="60" fill="none" viewBox="0 0 200 60"><g clip-path="url(#a)"><path fill="#fff" d="M192.593 0H7.407C3.317 0 0 3.358 0 7.5v45C0 56.642 3.316 60 7.407 60h185.186c4.091 0 7.407-3.358 7.407-7.5v-45c0-4.142-3.316-7.5-7.407-7.5Z"/><path stroke="#000" stroke-opacity=".12" d="M7.407.5h185.186c3.809 0 6.907 3.128 6.907 7v45c0 3.872-3.098 7-6.907 7H7.407C3.598 59.5.5 56.372.5 52.5v-45c0-3.872 3.098-7 6.907-7Z"/><path fill="#fff" d="M10 10h40v40H10z"/><path fill="#EA4335" d="m28.724 29.105-16.57 17.581A4.476 4.476 0 0 0 16.48 50a4.37 4.37 0 0 0 2.271-.622l.047-.031 18.639-10.751-8.728-9.506.015.015Z"/><path fill="#FBBC04" d="M45.48 26.118h-.015l-8.044-4.683-9.07 8.075 9.102 9.101 8.012-4.62a4.482 4.482 0 0 0 2.35-3.936 4.425 4.425 0 0 0-2.334-3.921v-.016Z"/><path fill="#4285F4" d="M12.156 13.33A4.669 4.669 0 0 0 12 14.48v31.07c0 .404.047.778.156 1.151l17.13-17.13-17.13-16.242Z"/><path fill="#34A853" d="m28.849 30.008 8.572-8.573-18.623-10.797a4.494 4.494 0 0 0-6.643 2.676l16.694 16.678v.016Z"/><path fill="#fff" d="M60 10h130v40H60z"/><path fill="#000" d="M105.792 23v-6.894h1.377v1.041h.108a1.97 1.97 0 0 1 .749-.863c.33-.207.747-.31 1.251-.31.774 0 1.367.221 1.777.666.411.444.616 1.077.616 1.898V23h-1.384v-4.139c0-.575-.12-1.003-.362-1.282-.237-.283-.609-.425-1.117-.425a1.65 1.65 0 0 0-.869.222 1.457 1.457 0 0 0-.572.622c-.131.267-.197.586-.197.958V23h-1.377Zm-4.9.133c-.673 0-1.255-.144-1.746-.431a2.859 2.859 0 0 1-1.124-1.232c-.262-.537-.393-1.174-.393-1.91v-.013c0-.74.131-1.378.393-1.91a2.898 2.898 0 0 1 1.13-1.232c.491-.288 1.071-.432 1.74-.432.672 0 1.252.144 1.739.432.487.283.861.694 1.123 1.231.267.533.4 1.17.4 1.91v.014c0 .736-.133 1.373-.4 1.91a2.854 2.854 0 0 1-1.123 1.232c-.483.287-1.062.431-1.739.431Zm0-1.155c.393 0 .727-.095 1.003-.286a1.81 1.81 0 0 0 .628-.831c.144-.36.216-.794.216-1.301v-.013c0-.512-.072-.948-.216-1.308-.144-.36-.353-.634-.628-.825-.276-.195-.61-.292-1.003-.292-.394 0-.728.097-1.003.292-.275.19-.487.466-.635.825-.144.36-.216.796-.216 1.308v.013c0 .507.072.941.216 1.3.148.36.36.638.635.832.275.19.609.286 1.003.286Zm-8.824 1.066c-.753 0-1.299-.143-1.637-.431-.335-.292-.502-.768-.502-1.428v-3.993H88.85v-1.086h1.08v-1.739h1.408v1.74h1.48v1.085h-1.48v3.656c0 .373.074.641.223.806.148.161.393.241.736.241a4.562 4.562 0 0 0 .52-.025v1.105c-.11.016-.228.031-.355.044a2.962 2.962 0 0 1-.394.025ZM86.082 23v-6.894h1.384V23h-1.383Zm.699-8.125a.831.831 0 0 1-.61-.254.831.831 0 0 1-.254-.61.81.81 0 0 1 .254-.602.831.831 0 0 1 .61-.254.83.83 0 0 1 .61.254.81.81 0 0 1 .253.603c0 .237-.085.44-.254.61a.83.83 0 0 1-.61.253Zm-6.621 8.169c-.753 0-1.299-.143-1.638-.431-.334-.292-.501-.768-.501-1.428v-3.993h-1.08v-1.086h1.08v-1.739h1.41v1.74h1.478v1.085H79.43v3.656c0 .373.074.641.222.806.148.161.394.241.737.241a4.562 4.562 0 0 0 .52-.025v1.105c-.11.016-.228.031-.355.044a2.962 2.962 0 0 1-.394.025Zm-7.274.089c-.673 0-1.25-.144-1.733-.431a2.913 2.913 0 0 1-1.117-1.238c-.258-.533-.388-1.164-.388-1.892v-.006c0-.72.13-1.348.388-1.885.262-.538.63-.957 1.104-1.257.478-.3 1.037-.45 1.676-.45.643 0 1.195.143 1.657.43.465.288.823.693 1.072 1.213.25.517.375 1.122.375 1.816v.482h-5.573v-.984h4.887l-.66.914v-.552c0-.49-.076-.897-.228-1.219a1.605 1.605 0 0 0-.616-.73 1.702 1.702 0 0 0-.908-.241 1.7 1.7 0 0 0-.92.254c-.267.165-.478.41-.635.736-.152.326-.228.726-.228 1.2v.552c0 .453.076.84.228 1.162.152.321.368.567.648.736.283.17.617.254 1.002.254.297 0 .55-.04.762-.12.216-.085.392-.189.527-.312.14-.122.235-.243.286-.361l.025-.051h1.333l-.013.057a2.35 2.35 0 0 1-.31.685c-.149.225-.346.43-.591.616a2.943 2.943 0 0 1-.876.45 3.67 3.67 0 0 1-1.174.172Zm-8.646.089c-.656 0-1.244-.11-1.764-.33a3.7 3.7 0 0 1-1.333-.965 4.385 4.385 0 0 1-.851-1.51c-.195-.593-.292-1.257-.292-1.994v-.012c0-.974.173-1.818.52-2.533.347-.72.838-1.276 1.473-1.67.635-.393 1.378-.59 2.228-.59.694 0 1.314.123 1.86.368.546.246.995.59 1.346 1.035.351.44.582.956.692 1.549l.006.063h-1.428l-.02-.063c-.16-.542-.454-.959-.882-1.25-.423-.293-.948-.439-1.574-.439-.563 0-1.051.144-1.466.432-.415.288-.736.696-.965 1.225-.224.525-.336 1.147-.336 1.866v.013c0 .546.063 1.037.19 1.473.131.436.32.808.565 1.117.245.304.54.54.882.704.343.166.73.248 1.162.248.5 0 .937-.097 1.314-.292.38-.199.677-.474.889-.825.211-.351.32-.762.323-1.232l.007-.203H64.43v-1.149h3.764v1.137a4.24 4.24 0 0 1-.28 1.574 3.42 3.42 0 0 1-.8 1.212 3.589 3.589 0 0 1-1.25.775 4.71 4.71 0 0 1-1.625.266ZM166.27 48.71a8.8 8.8 0 0 1-.586-.019 6.681 6.681 0 0 1-.547-.039v-2.129c.097.007.215.013.351.02.144.013.29.02.44.02.488 0 .875-.095 1.162-.284.286-.189.482-.482.586-.879l.107-.4-3.76-10.684h3.135l2.52 9.16-.586-1.005h.771l-.566 1.006 2.519-9.16h3.008l-3.642 10.722c-.306.918-.677 1.644-1.114 2.178a3.64 3.64 0 0 1-1.582 1.142c-.618.235-1.357.352-2.216.352Zm-9.766-3.544c-.684 0-1.289-.13-1.816-.39a3.048 3.048 0 0 1-1.241-1.124c-.299-.488-.449-1.054-.449-1.699v-.01c0-.644.16-1.198.479-1.66.325-.462.797-.823 1.416-1.084.618-.26 1.37-.42 2.255-.478l4.014-.235v1.739l-3.594.234c-.592.039-1.038.172-1.338.4-.292.222-.439.528-.439.918v.02c0 .397.153.713.459.947.312.228.716.342 1.211.342.436 0 .824-.085 1.162-.254.345-.176.615-.413.811-.713.201-.3.302-.635.302-1.006v-3.369c0-.469-.153-.83-.459-1.084-.299-.26-.739-.39-1.318-.39-.521 0-.941.094-1.26.283-.319.182-.53.436-.635.762l-.019.048h-2.627l.01-.097a3.111 3.111 0 0 1 .693-1.67c.397-.476.934-.843 1.611-1.104.678-.267 1.465-.4 2.364-.4.944 0 1.748.143 2.412.43.664.286 1.172.7 1.523 1.24.352.54.528 1.185.528 1.933V45h-2.823v-1.455h-.146a2.87 2.87 0 0 1-.733.879c-.306.24-.657.426-1.054.556-.397.124-.83.186-1.299.186ZM147.979 45V30.322h2.851V45h-2.851Zm-11.543-4.443v-2.305h3.574c.846 0 1.504-.215 1.972-.645.476-.436.713-1.054.713-1.855v-.02c0-.8-.237-1.416-.713-1.845-.468-.43-1.126-.645-1.972-.645h-3.574v-2.334h4.296c.99 0 1.856.202 2.598.606a4.26 4.26 0 0 1 1.729 1.68c.416.722.625 1.565.625 2.529v.02c0 .97-.209 1.816-.625 2.538a4.26 4.26 0 0 1-1.729 1.68c-.742.397-1.608.596-2.598.596h-4.296ZM134.961 45V30.908h2.949V45h-2.949Zm-12.217.225c-1.087 0-2.021-.225-2.803-.674a4.54 4.54 0 0 1-1.806-1.914c-.417-.834-.625-1.82-.625-2.96v-.009c0-1.133.208-2.116.625-2.95.423-.84 1.015-1.487 1.777-1.943.768-.455 1.673-.683 2.715-.683 1.042 0 1.94.221 2.695.664a4.466 4.466 0 0 1 1.748 1.875c.41.8.616 1.741.616 2.822v.879h-8.76v-1.787h7.402l-1.348 1.69v-1.133c0-.632-.097-1.162-.292-1.592-.196-.43-.466-.752-.811-.967a2.223 2.223 0 0 0-1.201-.322c-.456 0-.86.11-1.211.332-.352.221-.628.547-.83.976-.202.43-.303.954-.303 1.573v1.142c0 .6.098 1.11.293 1.533.202.423.488.749.859.977.371.228.811.342 1.319.342.41 0 .758-.062 1.045-.186.293-.123.53-.27.713-.44.182-.175.306-.338.371-.488l.019-.058h2.647l-.02.107a4.113 4.113 0 0 1-.459 1.084 3.969 3.969 0 0 1-.918 1.035c-.384.32-.862.58-1.435.782-.573.195-1.247.293-2.022.293ZM112.451 45V30.322h2.852V45h-2.852Zm-7.969 3.74c-.983 0-1.829-.13-2.539-.39-.709-.254-1.269-.612-1.679-1.075a2.961 2.961 0 0 1-.733-1.582v-.058h2.813l.019.049c.085.3.31.543.674.732.371.195.869.293 1.494.293.755 0 1.338-.173 1.748-.518.417-.338.625-.817.625-1.435v-1.904h-.146c-.196.37-.449.69-.762.957-.312.26-.677.459-1.094.595a4.359 4.359 0 0 1-1.367.205c-.898 0-1.673-.215-2.324-.644-.645-.43-1.143-1.032-1.494-1.807-.352-.775-.528-1.68-.528-2.715v-.01c0-1.074.176-2.005.528-2.792.358-.795.862-1.41 1.513-1.846.658-.443 1.439-.664 2.344-.664.495 0 .947.078 1.358.234.416.157.781.381 1.093.674.313.286.564.635.752 1.045h.118v-1.768h2.851v10.362c0 .827-.215 1.543-.644 2.148-.43.612-1.039 1.084-1.827 1.416-.781.332-1.712.498-2.793.498Zm.02-6.299c.501 0 .931-.123 1.289-.37a2.36 2.36 0 0 0 .84-1.046c.195-.449.293-.97.293-1.562v-.02c0-.599-.098-1.123-.293-1.572a2.36 2.36 0 0 0-.84-1.045c-.358-.247-.788-.37-1.289-.37-.501 0-.931.123-1.289.37a2.323 2.323 0 0 0-.82 1.045c-.189.45-.284.973-.284 1.572v.01c0 .6.095 1.123.284 1.572.188.45.462.798.82 1.045.358.248.788.371 1.289.371Zm-12.188 2.784c-1.087 0-2.027-.222-2.822-.665a4.451 4.451 0 0 1-1.816-1.913c-.423-.834-.635-1.83-.635-2.989v-.02c0-1.145.215-2.131.645-2.958a4.512 4.512 0 0 1 1.826-1.914c.787-.45 1.722-.674 2.802-.674 1.088 0 2.025.224 2.813.674a4.464 4.464 0 0 1 1.816 1.904c.43.827.645 1.816.645 2.969v.02c0 1.158-.212 2.154-.635 2.988a4.451 4.451 0 0 1-1.816 1.913c-.788.443-1.729.665-2.823.665Zm0-2.237c.502 0 .925-.13 1.27-.39.352-.267.622-.648.81-1.143.19-.495.284-1.09.284-1.787v-.02c0-.696-.095-1.292-.284-1.787-.188-.494-.459-.872-.81-1.133-.352-.266-.775-.4-1.27-.4-.488 0-.908.134-1.26.4-.35.26-.621.639-.81 1.133-.189.495-.283 1.09-.283 1.787v.02c0 .697.091 1.296.273 1.797.19.495.46.872.81 1.133.353.26.776.39 1.27.39Zm-12.167 2.237c-1.088 0-2.029-.222-2.823-.665a4.452 4.452 0 0 1-1.816-1.913c-.423-.834-.635-1.83-.635-2.989v-.02c0-1.145.215-2.131.645-2.958a4.511 4.511 0 0 1 1.826-1.914c.788-.45 1.722-.674 2.803-.674 1.087 0 2.024.224 2.812.674a4.464 4.464 0 0 1 1.816 1.904c.43.827.645 1.816.645 2.969v.02c0 1.158-.212 2.154-.635 2.988a4.452 4.452 0 0 1-1.816 1.913c-.788.443-1.729.665-2.822.665Zm0-2.237c.5 0 .924-.13 1.269-.39.352-.267.622-.648.81-1.143.19-.495.284-1.09.284-1.787v-.02c0-.696-.095-1.292-.283-1.787-.19-.494-.46-.872-.811-1.133-.352-.266-.775-.4-1.27-.4-.488 0-.908.134-1.26.4-.35.26-.621.639-.81 1.133-.189.495-.283 1.09-.283 1.787v.02c0 .697.091 1.296.273 1.797.19.495.46.872.811 1.133.352.26.775.39 1.27.39Zm-13.379 2.344c-1.049 0-1.99-.17-2.823-.508a5.824 5.824 0 0 1-2.129-1.465c-.586-.644-1.035-1.422-1.347-2.334-.313-.911-.469-1.94-.469-3.085v-.01c0-1.51.273-2.816.82-3.916.547-1.1 1.322-1.947 2.325-2.54 1.002-.598 2.187-.898 3.554-.898 1.114 0 2.106.202 2.979.606.879.397 1.595.947 2.148 1.65.56.703.912 1.517 1.055 2.441l.01.108h-2.93l-.03-.088c-.201-.703-.585-1.247-1.152-1.63-.566-.391-1.26-.587-2.08-.587-.761 0-1.42.196-1.972.586-.547.384-.97.938-1.27 1.66-.3.716-.45 1.576-.45 2.578v.02c0 .762.089 1.445.265 2.05.175.606.43 1.124.761 1.553.339.424.74.75 1.201.977a3.66 3.66 0 0 0 1.582.332c.645 0 1.211-.12 1.7-.361.494-.248.882-.59 1.162-1.026.286-.442.44-.96.459-1.552l.01-.245H67.06V37.48h5.958v1.748c0 .944-.144 1.794-.43 2.55a5.294 5.294 0 0 1-1.25 1.923 5.415 5.415 0 0 1-1.973 1.211c-.768.28-1.634.42-2.597.42Z"/></g><defs><clipPath id="a"><path fill="#fff" d="M0 0h200v60H0z"/></clipPath></defs></svg>